<?xml version="1.0" encoding="utf-8"?>
<!-- Generator: Adobe Illustrator 17.0.0, SVG Export Plug-In . SVG Version: 6.00 Build 0)  -->
<!DOCTYPE svg PUBLIC "-//W3C//DTD SVG 1.1//EN" "http://www.w3.org/Graphics/SVG/1.1/DTD/svg11.dtd">
<svg version="1.1" id="Layer_1" xmlns="http://www.w3.org/2000/svg" xmlns:xlink="http://www.w3.org/1999/xlink" x="0px" y="0px"
	 width="63.417px" height="55.25px" viewBox="0 0 63.417 55.25" enable-background="new 0 0 63.417 55.25" xml:space="preserve">
<g>
	<path fill="#FFFFFF" d="M31.723,10.921c0.305-0.635,0.618-1.32,0.958-1.99c3.229-6.371,10.292-9.089,16.862-7.849
		c5.701,1.076,9.948,4.182,12.177,9.625c1.277,3.117,1.289,6.463,1.041,9.791c-0.482,6.467-3.999,11.251-8.643,15.354
		c-2.013,1.778-4.186,3.378-6.311,5.027c-2.806,2.178-5.707,4.24-8.434,6.511c-2.72,2.265-5.276,4.726-7.97,7.161
		c-0.303-0.416-0.683-0.976-1.1-1.507c-2.549-3.248-5.957-5.521-9.144-8.045C16.78,41.533,12.25,38.24,8.055,34.563
		c-5.113-4.482-7.312-10.305-7.519-17.156C0.301,9.598,5.997,3.098,12.374,1.426c7.171-1.88,13.315-0.239,17.843,6.328
		C30.867,8.696,31.22,9.843,31.723,10.921z"/>
</g>
<g>
	<g>
		<path fill="#ED1A3A" d="M31.721,13.165c0.264-0.55,0.535-1.143,0.829-1.723c2.796-5.515,8.91-7.868,14.597-6.794
			c4.936,0.932,8.612,3.62,10.541,8.332c1.105,2.698,1.116,5.595,0.901,8.476c-0.417,5.599-3.461,9.74-7.482,13.292
			c-1.743,1.539-3.624,2.924-5.464,4.352c-2.429,1.886-4.94,3.67-7.302,5.637c-2.354,1.96-4.567,4.091-6.9,6.2
			c-0.262-0.36-0.591-0.845-0.952-1.304c-2.206-2.812-5.157-4.78-7.916-6.964c-3.79-3.001-7.712-5.853-11.343-9.035
			c-4.426-3.88-6.33-8.921-6.509-14.852C4.52,12.02,9.45,6.392,14.97,4.945c6.208-1.627,11.527-0.207,15.447,5.478
			C30.98,11.239,31.286,12.231,31.721,13.165z"/>
	</g>
</g>
</svg>
