<?xml version="1.0" encoding="utf-8"?>
<!-- Generator: Adobe Illustrator 17.0.0, SVG Export Plug-In . SVG Version: 6.00 Build 0)  -->
<!DOCTYPE svg PUBLIC "-//W3C//DTD SVG 1.1//EN" "http://www.w3.org/Graphics/SVG/1.1/DTD/svg11.dtd">
<svg version="1.1" id="Layer_1" xmlns="http://www.w3.org/2000/svg" xmlns:xlink="http://www.w3.org/1999/xlink" x="0px" y="0px"
	 width="63.417px" height="55.25px" viewBox="0 0 63.417 55.25" enable-background="new 0 0 63.417 55.25" xml:space="preserve">
<g>
	<path fill="#FFFFFF" d="M31.663,10.806c0.305-0.635,0.618-1.32,0.958-1.99c3.229-6.371,10.292-9.089,16.862-7.849
		c5.701,1.076,9.948,4.182,12.177,9.625c1.277,3.117,1.289,6.463,1.041,9.791c-0.482,6.467-3.999,11.251-8.643,15.354
		c-2.013,1.778-4.186,3.378-6.311,5.027c-2.806,2.178-5.707,4.24-8.434,6.511c-2.72,2.265-5.276,4.726-7.97,7.161
		c-0.303-0.416-0.683-0.976-1.1-1.507c-2.549-3.248-5.957-5.521-9.144-8.045c-4.378-3.467-8.908-6.761-13.103-10.438
		c-5.113-4.482-7.312-10.305-7.519-17.156C0.241,9.483,5.937,2.983,12.314,1.311c7.171-1.88,13.315-0.239,17.843,6.328
		C30.807,8.581,31.16,9.728,31.663,10.806z"/>
</g>
</svg>
